<svg version="1.1" id="Layer_1" xmlns="http://www.w3.org/2000/svg" xmlns:xlink="http://www.w3.org/1999/xlink" x="0px" y="0px"
	 width="100%" viewBox="0 0 1368 1596" enable-background="new 0 0 1368 1596" xml:space="preserve">
<path fill="#A8E61D" opacity="1.000000" stroke="none" 
	d="
M1141.000000,1597.000000 
	C837.306458,1597.000000 533.612915,1597.000000 229.459702,1596.531372 
	C229.000000,1520.472290 229.000000,1444.881836 229.000000,1368.789429 
	C305.350586,1368.789429 381.072540,1368.789429 457.000000,1368.789429 
	C457.000000,1366.467773 457.000000,1364.646606 457.000000,1362.825439 
	C457.000000,1065.178955 457.000000,767.532410 456.999634,469.885895 
	C456.999603,468.552673 457.113983,467.206451 456.971100,465.888397 
	C456.117310,458.014099 454.937805,457.000153 446.843414,457.000122 
	C376.181519,456.999908 305.519653,457.000000 234.857758,457.000000 
	C232.946884,457.000000 231.036026,457.000000 229.258575,457.000000 
	C229.258575,380.610687 229.258575,305.007904 229.258575,228.902191 
	C305.237274,228.902191 380.959167,228.902191 457.000000,228.902191 
	C457.000000,152.599258 457.000000,76.799629 457.000000,1.000000 
	C608.693542,1.000000 760.387024,1.000000 912.540283,1.468657 
	C913.000000,457.494537 913.000000,913.051758 913.000000,1369.108887 
	C989.249695,1369.108887 1064.969116,1369.108887 1141.000000,1369.108887 
	C1141.000000,1445.405762 1141.000000,1521.202881 1141.000000,1597.000000 
z"/>
<path fill="#000000" opacity="1.000000" stroke="none" 
	d="
M1141.468628,1597.000000 
	C1141.000000,1521.202881 1141.000000,1445.405762 1141.000000,1369.108887 
	C1064.969116,1369.108887 989.249695,1369.108887 913.000000,1369.108887 
	C913.000000,913.051758 913.000000,457.494537 913.000000,1.468657 
	C1064.970825,1.000000 1216.941772,1.000000 1368.946777,1.000000 
	C1368.946777,533.000000 1368.946777,1065.000000 1368.946777,1597.000000 
	C1293.241333,1597.000000 1217.589355,1597.000000 1141.468628,1597.000000 
z"/>
<path fill="#000000" opacity="1.000000" stroke="none" 
	d="
M456.531342,1.000000 
	C457.000000,76.799629 457.000000,152.599258 457.000000,228.902191 
	C380.959167,228.902191 305.237274,228.902191 229.258575,228.902191 
	C229.258575,305.007904 229.258575,380.610687 229.258575,457.000000 
	C231.036026,457.000000 232.946884,457.000000 234.857758,457.000000 
	C305.519653,457.000000 376.181519,456.999908 446.843414,457.000122 
	C454.937805,457.000153 456.117310,458.014099 456.971100,465.888397 
	C457.113983,467.206451 456.999603,468.552673 456.999634,469.885895 
	C457.000000,767.532410 457.000000,1065.178955 457.000000,1362.825439 
	C457.000000,1364.646606 457.000000,1366.467773 457.000000,1368.789429 
	C381.072540,1368.789429 305.350586,1368.789429 229.000000,1368.789429 
	C229.000000,1444.881836 229.000000,1520.472290 229.000000,1596.531372 
	C153.014557,1597.000000 77.029106,1597.000000 1.021832,1597.000000 
	C1.021832,1065.116455 1.021832,533.232849 1.021832,1.000000 
	C152.687378,1.000000 304.375031,1.000000 456.531342,1.000000 
z"/>
</svg>